<?xml version="1.0" standalone="no"?>
<svg xmlns="http://www.w3.org/2000/svg" viewBox="0 0 89.1 27.749" width="89.1" height="27.749"><path fill="#000000" fill-rule="nonzero" d="M3.39 4.30L3.39 4.30Q4.17 4.30 5.00 4.51Q5.84 4.71 6.53 5.03Q7.22 5.36 7.66 5.75Q8.11 6.15 8.11 6.53L8.11 6.53Q8.11 6.71 7.95 6.94Q7.78 7.17 7.55 7.38Q7.31 7.58 7.04 7.72Q6.76 7.85 6.55 7.85L6.55 7.85Q6.27 7.85 5.92 7.62Q5.58 7.38 5.16 7.10Q4.75 6.81 4.25 6.57Q3.76 6.34 3.19 6.34L3.19 6.34Q2.81 6.34 2.57 6.52Q2.33 6.70 2.33 7.03L2.33 7.03Q2.33 7.32 2.61 7.62Q2.89 7.92 3.36 8.24Q3.82 8.55 4.41 8.91Q4.99 9.26 5.61 9.66Q6.22 10.05 6.81 10.52Q7.39 10.99 7.86 11.54Q8.32 12.09 8.60 12.74Q8.88 13.39 8.88 14.16L8.88 14.16Q8.88 14.81 8.65 15.35Q8.41 15.89 7.98 16.28Q7.55 16.66 6.95 16.88Q6.35 17.09 5.64 17.09L5.64 17.09Q4.73 17.09 3.97 16.81Q3.21 16.54 2.66 16.05Q2.11 15.57 1.80 14.91Q1.49 14.24 1.49 13.44L1.49 13.44Q1.49 12.41 1.86 11.94Q2.23 11.47 3.02 11.47L3.02 11.47Q3.52 11.47 3.81 11.66Q4.10 11.85 4.10 12.12L4.10 12.12Q4.10 12.26 4.05 12.40Q4.01 12.55 3.96 12.71Q3.90 12.87 3.86 13.04Q3.82 13.22 3.82 13.39L3.82 13.39Q3.82 13.70 3.96 13.98Q4.10 14.26 4.34 14.48Q4.58 14.70 4.90 14.82Q5.21 14.95 5.57 14.95L5.57 14.95Q6.50 14.95 6.50 14.18L6.50 14.18Q6.50 13.57 6.02 13.03Q5.54 12.48 4.82 11.96Q4.09 11.44 3.25 10.91Q2.41 10.38 1.69 9.81Q0.96 9.23 0.48 8.58Q0 7.93 0 7.17L0 7.17Q0 6.54 0.26 6.01Q0.53 5.48 0.98 5.10Q1.44 4.72 2.06 4.51Q2.67 4.30 3.39 4.30ZM8.67 1.13L8.67 1.13Q8.67 0.52 9.02 0.26Q9.38 0 10.18 0L10.18 0Q10.46 0 10.68 0.06Q10.89 0.12 11.03 0.25Q11.17 0.39 11.26 0.62Q11.34 0.84 11.40 1.20L11.40 1.20Q11.55 2.24 11.71 3.38Q11.87 4.52 12.02 5.65Q12.16 6.79 12.29 7.86Q12.42 8.93 12.52 9.85Q12.62 10.77 12.67 11.48Q12.73 12.19 12.73 12.60L12.73 12.60Q12.73 13.02 12.65 13.31Q12.57 13.61 12.39 13.78Q12.21 13.96 11.92 14.03Q11.64 14.11 11.21 14.11L11.21 14.11Q10.80 14.11 10.56 13.90Q10.32 13.69 10.32 13.25L10.32 13.25Q10.32 12.81 10.25 12.06Q10.18 11.32 10.07 10.41Q9.95 9.49 9.80 8.46Q9.66 7.43 9.50 6.42Q9.34 5.41 9.19 4.48Q9.05 3.55 8.93 2.83Q8.81 2.11 8.74 1.65Q8.67 1.18 8.67 1.13ZM16.35 2.52L16.35 2.52Q16.01 2.52 15.71 2.42Q15.41 2.32 15.19 2.14Q14.98 1.96 14.85 1.71Q14.72 1.46 14.72 1.17L14.72 1.17Q14.72 0.68 15.11 0.38Q15.50 0.07 16.16 0.07L16.16 0.07Q16.46 0.07 16.75 0.18Q17.03 0.29 17.24 0.48Q17.46 0.67 17.59 0.92Q17.72 1.17 17.72 1.44L17.72 1.44Q17.72 1.95 17.35 2.23Q16.98 2.52 16.35 2.52ZM14.74 6.09L14.74 6.09Q14.74 5.68 15.10 5.42Q15.46 5.16 16.04 5.16L16.04 5.16Q17.10 5.16 17.17 5.88L17.17 5.88Q17.21 6.39 17.27 7.02Q17.32 7.65 17.37 8.36Q17.43 9.07 17.47 9.83Q17.51 10.58 17.54 11.31Q17.58 12.05 17.60 12.73Q17.63 13.41 17.63 13.97L17.63 13.97Q17.63 14.55 17.21 14.85Q16.79 15.14 16.00 15.14L16.00 15.14Q15.63 15.14 15.43 14.97Q15.22 14.80 15.22 14.47L15.22 14.47Q15.22 12.86 15.15 11.44Q15.07 10.03 14.98 8.93Q14.89 7.83 14.82 7.10Q14.74 6.36 14.74 6.09ZM18.66 6.29L18.66 6.29Q18.66 5.84 19.07 5.60Q19.48 5.36 20.24 5.36L20.24 5.36Q20.41 5.36 20.55 5.40Q20.70 5.45 20.81 5.58Q20.92 5.72 21.01 5.95Q21.11 6.19 21.20 6.55L21.20 6.55Q21.29 6.96 21.39 6.96L21.39 6.96Q21.47 6.96 21.59 6.62L21.59 6.62Q21.80 5.95 22.14 5.46Q22.49 4.96 22.92 4.62Q23.36 4.29 23.87 4.13Q24.38 3.96 24.94 3.96L24.94 3.96Q26.07 3.96 27.06 4.39Q28.04 4.82 28.76 5.57Q29.47 6.33 29.88 7.35Q30.29 8.38 30.29 9.57L30.29 9.57Q30.29 10.84 29.85 11.92Q29.41 13.00 28.63 13.78Q27.84 14.55 26.76 14.99Q25.68 15.43 24.39 15.43L24.39 15.43L23.79 15.41Q23.26 15.41 23.26 16.01L23.26 16.01L23.86 21.39Q23.85 21.59 23.72 21.76Q23.60 21.93 23.40 22.05Q23.19 22.18 22.92 22.25Q22.64 22.32 22.35 22.32L22.35 22.32Q21.50 22.32 21.43 21.77L21.43 21.77Q21.19 19.64 20.89 17.72Q20.59 15.80 20.28 14.14Q19.97 12.48 19.68 11.12Q19.38 9.76 19.15 8.75Q18.93 7.75 18.79 7.11Q18.66 6.48 18.66 6.29ZM22.46 9.39L22.46 9.39Q22.46 10.15 22.52 10.89Q22.58 11.64 22.71 12.50L22.71 12.50Q22.78 13.03 23.29 13.10L23.29 13.10Q23.59 13.17 23.97 13.24Q24.35 13.30 24.61 13.30L24.61 13.30Q25.36 13.30 25.97 13.08Q26.58 12.86 27.01 12.44Q27.45 12.02 27.68 11.45Q27.91 10.88 27.91 10.17L27.91 10.17Q27.91 9.32 27.68 8.57Q27.45 7.83 27.04 7.28Q26.64 6.73 26.09 6.41Q25.55 6.09 24.91 6.09L24.91 6.09Q24.36 6.09 23.91 6.33Q23.46 6.57 23.14 7.00Q22.82 7.43 22.64 8.04Q22.46 8.65 22.46 9.39ZM36.49 14.79L36.49 14.79Q35.79 14.79 35.09 14.44Q34.38 14.10 33.74 13.50Q33.09 12.90 32.54 12.09Q31.99 11.27 31.58 10.33Q31.17 9.39 30.94 8.36Q30.70 7.32 30.70 6.29L30.70 6.29Q30.70 5.50 31.03 5.15Q31.36 4.80 32.10 4.80L32.10 4.80Q33.02 4.80 33.13 5.57L33.13 5.57Q33.34 7.18 33.71 8.48Q34.09 9.79 34.60 10.70Q35.11 11.61 35.74 12.11Q36.36 12.60 37.07 12.60L37.07 12.60Q37.57 12.60 38.02 12.35Q38.46 12.09 38.79 11.64L38.79 11.64Q38.91 11.46 38.95 11.30Q38.99 11.13 39.01 10.92L39.01 10.92Q39.07 10.09 39.15 9.29Q39.22 8.48 39.29 7.68L39.29 7.68Q39.32 7.32 39.39 7.10Q39.46 6.88 39.60 6.75Q39.74 6.62 39.97 6.57Q40.20 6.53 40.55 6.53L40.55 6.53Q40.95 6.53 41.23 6.64Q41.51 6.75 41.68 7.00Q41.86 7.25 41.94 7.66Q42.01 8.06 42.01 8.66L42.01 8.66Q42.01 9.18 41.94 9.56Q41.86 9.94 41.76 10.27Q41.66 10.61 41.57 10.93Q41.48 11.25 41.46 11.64L41.46 11.64Q41.40 12.61 41.36 13.32Q41.31 14.03 41.28 14.53Q41.25 15.04 41.23 15.40Q41.21 15.76 41.20 16.05Q41.19 16.34 41.19 16.59Q41.19 16.85 41.19 17.16L41.19 17.16Q41.19 17.71 41.24 18.36Q41.29 19.01 41.34 19.61Q41.39 20.20 41.44 20.66Q41.48 21.12 41.48 21.29L41.48 21.29Q41.48 21.52 41.34 21.71Q41.20 21.91 40.97 22.07Q40.73 22.22 40.42 22.31Q40.10 22.39 39.75 22.39L39.75 22.39Q39.45 22.39 39.26 22.19Q39.08 21.98 39.06 21.64L39.06 21.64Q39.02 21.20 39 20.56Q38.98 19.92 38.95 19.20Q38.93 18.48 38.92 17.74Q38.92 16.99 38.91 16.35Q38.89 15.71 38.89 15.23Q38.89 14.75 38.89 14.54L38.89 14.54Q38.89 14.33 38.85 14.24Q38.80 14.16 38.67 14.16L38.67 14.16Q38.60 14.16 38.48 14.20Q38.37 14.24 38.21 14.33L38.21 14.33Q37.80 14.58 37.38 14.68Q36.96 14.79 36.49 14.79Z" transform="translate(0, 2.677)"></path><line x1="51.01171875" y1="2%" x2="51.01171875" y2="98%" stroke="#000000" stroke-linecap="round"></line><g fill="#ead017" color="#ead017" transform="translate(60.01171875 0) scale(0.272931)"><svg width="106.254" height="101.667" x="0.0" y="0.0" viewBox="0 0 106.254 101.667"><path style="" d="m 17.021187,-0.08262714 a 17.021187,17.021187 0 1 1 -34.042374,0 17.021187,17.021187 0 1 1 34.042374,0 z" transform="matrix(2.9010441,0,0,2.9010441,53.127,51.073205)" fill="none" stroke="currentColor" stroke-width="2.58375025" stroke-miterlimit="4" stroke-opacity="1" stroke-dasharray="none"></path><g transform="matrix(-0.63932257,0,0,0.63932257,92.498453,18.285873)"><g transform="matrix(-0.83502688,0,0,0.83502688,168.1125,-23.806487)"><g><path d="m 95.745929,62.69857 -0.01685,-12.53955 -41.90426,33.033268 c 0.06,3.9 -0.06001,8.394444 -1.5e-5,12.294444 L 95.729075,128.52 95.695368,115.86639 61.301123,89.394063 z"></path></g></g><g transform="matrix(0.83502688,0,0,0.83502688,-44.946342,-23.806486)"><g><path d="m 95.745929,62.69857 -0.01685,-12.53955 -41.90426,33.033268 c 0.06,3.9 -0.06001,8.394444 -1.5e-5,12.294444 L 95.729075,128.52 95.695368,115.86639 61.301123,89.394063 z"></path></g></g><path d="m 48.915576,18.003341 -10.94178,0 35.24437,65.812426 12.657781,0"></path></g></svg></g></svg>